<svg xmlns="http://www.w3.org/2000/svg" viewBox="0 0 1000.14 1000.07"><defs><style>.cls-1{fill:#404040;}.cls-2{fill:#fdfdfd;}</style></defs><title>Recurso 1</title><g id="Capa_2" data-name="Capa 2"><g id="Capa_1-2" data-name="Capa 1"><path class="cls-1" d="M1000.07,124.07v751c-2,.26-3.92.68-5.89.76A117.65,117.65,0,0,0,937,893c-31.71,19.29-51.08,47.39-58.6,83.67-.5,2.39-2.73,6.14,3,6.09,18-.15,35.94-.09,53.91,0,2.52,0,3.9-.82,4.88-3.2a53.3,53.3,0,0,1,8.43-14.08c13.43-15.94,30.14-24.7,51.43-23.37v20c-.81.13-1.62.32-2.44.38-22.63,1.62-36.67,15-39.33,37.46-2.33.05-4.66.16-7,.16H44.48c-2.5,0-5,0-7.5-.05.29-19.29-18-37.6-36.91-36.95v-21a13.79,13.79,0,0,1,2.47-.2c24.29,2.27,41.59,14.71,52.23,36.42,1.68,3.43,3.53,4.49,7.14,4.46,18.32-.15,36.63-.06,55-.08,5.81,0,6.22-.33,4.94-5.91-11.77-51.2-42.64-84.15-93.62-97.91C19,876.36,9.42,876.48.07,875.07v-751c4.49.79,9,.28,13.41-.23C83.6,115.81,126.07,55.31,124.07.07h752c-.05,1.83-.27,3.67-.14,5.48,3.66,51.55,29.26,88,76.13,109.27A101,101,0,0,0,1000.07,124.07Zm-389,376.76c-11.17,0-22.34.11-33.5-.06-3.54-.06-4.79.71-4.77,4.68.26,41.61-34.11,75.8-75.72,75.57a75.32,75.32,0,0,1-75.1-75.6c0-2.82,0-4.68-3.75-4.65-21.17.14-42.33.1-63.5,0-2.8,0-3.8.92-3.7,3.76a155.07,155.07,0,0,0,2.31,21.85c17.31,97.5,124.43,151.85,212.79,107.11,50.85-25.75,78-68.42,82.73-125.25.62-7.42.41-7.44-6.79-7.44Zm-3.85-21.71c11.67,0,23.34-.09,35,.06,3.54.05,4.82-.38,4.12-4.63-12.68-76.79-84.16-131-162-122.66-66,7.06-119.61,57.49-130.61,122.7-.74,4.36.75,4.6,4.18,4.58q32.25-.15,64.49,0c3.05,0,4.59-.81,6-3.73,13.8-29,36.67-45.17,68.93-45.18s55.17,16.09,69,45.11c1.36,2.87,2.9,3.85,6,3.81C583.92,479,595.59,479.12,607.25,479.12Zm58.53-234.7c.5,27.13,12.18,51.57,35.87,69.79,34.29,26.39,83.69,24.35,115.07-4.41,1.59-1.46,4.6-2.59,1.38-5.71-9.56-9.28-18.94-18.75-28.29-28.25-1.9-1.93-2.91-1.55-4.77.16-19.15,17.59-46.8,17.44-64.39-.22-17.84-17.91-18.21-45.32-.66-64.35,2.17-2.36,2-3.49-.11-5.53-8.22-8-16.44-16.07-24.34-24.41-2.95-3.11-4.55-2.45-7,.37C673.71,199.07,666.05,219,665.78,244.42ZM242.09,334.29A83.72,83.72,0,0,0,262.9,332c66.46-15.38,92.59-98,47-148.54-2.45-2.72-3.92-3.49-6.87-.39-8.61,9.05-17.54,17.79-26.46,26.54-2.08,2-2.85,3.18-.34,5.86,17.39,18.6,17.09,46.33-.43,64-17.71,17.87-45.56,18.33-64.33.77-2.74-2.56-3.89-1.64-5.87.37-7.94,8.07-15.86,16.17-24.06,24-2.95,2.81-2.74,4.41.23,7C199.14,326.53,219.18,334.18,242.09,334.29ZM758.3,665.86a86.24,86.24,0,0,0-20.82,2.27C671,683.26,644.69,765.7,690,816.55c2.63,3,4.12,3.68,7.22.4,8.59-9.07,17.55-17.78,26.45-26.55,1.9-1.88,2.71-3,.37-5.49-17.61-19-17.33-46.74.41-64.35,17.9-17.78,45.35-18.07,64.35-.42,2.55,2.37,3.66,1.48,5.5-.39,8.08-8.18,16.11-16.4,24.42-24.35,2.81-2.69,2.59-4.18-.22-6.62C801.23,673.75,781.22,666,758.3,665.86Zm-424,92.61a85.75,85.75,0,0,0-2.22-20.82c-14.66-66.56-98.23-93.15-148.71-47.37-2.8,2.53-3.27,4-.27,6.86,9.16,8.74,18,17.79,26.9,26.81,1.82,1.84,2.88,2.31,5.14.22,19.16-17.64,46.7-17.47,64.37.2,17.83,17.84,18.2,45.35.66,64.36-2.19,2.36-2,3.49.12,5.52,8.22,8,16.45,16.07,24.34,24.42,3,3.13,4.56,2.42,7-.38C326.43,801.08,334.11,781.2,334.28,758.47Zm514.48,1.63c-.33-21.67-5.4-38.64-15.63-54.08-1.91-2.87-3.15-3.59-5.89-.75-8.44,8.75-17.1,17.3-25.8,25.8-2.08,2-2.35,3.77-1.42,6.55,6.06,18.08,2.7,34.45-10.81,47.87-13.35,13.27-29.59,16.59-47.47,10.6-3-1-4.8-.56-6.94,1.64-9.2,9.42-18.47,18.77-27.93,27.92-2.72,2.63-2.42,3.8.62,5.72,30.26,19.12,61.77,21.66,93.42,4.87C832.27,819.61,847.38,792.13,848.76,760.1Zm-697-507.42c.34,10.3,5.44,26.42,15,41.18,2.3,3.53,3.77,3.49,6.58.57,8.21-8.52,16.61-16.86,25.09-25.11,2.2-2.14,2.64-3.93,1.64-6.94-6-17.88-2.69-34.11,10.6-47.47,13.44-13.51,29.79-16.87,47.87-10.81,2.8.94,4.5.63,6.53-1.44,9.33-9.53,18.69-19,28.3-28.26,3-2.87,1.85-3.92-.86-5.71a95,95,0,0,0-40.87-15C198.4,146.86,149.28,191.73,151.74,252.68ZM759.6,151.48c-17.61-.95-40.28,5.82-54.24,15.93-2.76,2-2.39,3.2-.26,5.3q13.21,12.94,26.15,26.16c1.92,2,3.55,2.26,6.13,1.31a42.26,42.26,0,0,1,20.6-2.56c30.31,4.18,47.69,31.91,38.06,61-.94,2.83-.53,4.51,1.51,6.51,9.51,9.33,19,18.71,28.27,28.27,2.48,2.55,3.59,2.18,5.43-.58,9.67-14.5,15.16-30.4,15.7-47.79C848.51,194.43,810.89,154.24,759.6,151.48Zm-518,697.25A92.16,92.16,0,0,0,294.42,833c2.74-1.83,3.14-3.1.57-5.6-8.74-8.45-17.3-17.1-25.82-25.77-2-2-3.61-2.58-6.5-1.6-18,6.08-34.43,2.85-47.9-10.65s-16.75-29.86-10.63-47.9c1-2.91.38-4.54-1.61-6.49-9.38-9.23-18.72-18.51-27.91-27.93-2.4-2.45-3.62-2.93-5.79.36-9.61,14.53-15.14,30.42-15.63,47.8C151.78,806,189.29,846,241.57,848.73ZM450.06,502.06a47.42,47.42,0,0,0,47.46,47.76c25.69,0,47.08-21.25,47.29-47a47.38,47.38,0,0,0-94.75-.72Zm-208-285a28.8,28.8,0,1,0-.24,57.59,28.8,28.8,0,0,0,.24-57.59Zm541,25a28.8,28.8,0,1,0-28.55,28.72A28.68,28.68,0,0,0,783.11,242Zm-25,541.1a28.8,28.8,0,1,0,0-57.6,28.8,28.8,0,0,0,0,57.6Zm-512.38,4A28.82,28.82,0,1,0,217,758.14,28.78,28.78,0,0,0,245.78,787.07Z"/><path class="cls-2" d="M124.07.07c2,55.24-40.47,115.74-110.59,123.77-4.42.51-8.92,1-13.41.23v-57c23-.32,39.77-11.35,51.84-30.25C59,25.66,61.11,13.1,61.07.07Z"/><path class="cls-2" d="M1000.07,124.07a101,101,0,0,1-48-9.25C905.19,93.53,879.59,57.1,875.93,5.55c-.13-1.81.09-3.65.14-5.48h59C932.5,30.4,953,58.21,982.31,65.72c5.85,1.49,11.86,1.43,17.76,2.35Z"/><path class="cls-2" d="M.07,875.07c9.35,1.41,18.88,1.29,28.11,3.78,51,13.76,81.85,46.71,93.62,97.91,1.28,5.58.87,5.91-4.94,5.91-18.32,0-36.63-.07-54.95.08-3.61,0-5.46-1-7.14-4.46-10.64-21.71-27.94-34.15-52.23-36.42a13.79,13.79,0,0,0-2.47.2Z"/><path class="cls-2" d="M1000.07,942.07c-21.29-1.33-38,7.43-51.43,23.37a53.3,53.3,0,0,0-8.43,14.08c-1,2.38-2.36,3.21-4.88,3.2-18-.08-35.94-.14-53.91,0-5.77,0-3.54-3.7-3-6.09,7.52-36.28,26.89-64.38,58.6-83.67a117.65,117.65,0,0,1,57.2-17.14c2-.08,3.93-.5,5.89-.76Z"/><path class="cls-1" d="M1000.07,68.07c-5.9-.92-11.91-.86-17.76-2.35C953,58.21,932.5,30.4,935.07.07h23c.07,1.33.1,2.66.21,4,1.81,22.59,21,39.54,41.79,37Z"/><path class="cls-1" d="M61.07.07c0,13-2,25.59-9.16,36.75C39.84,55.72,23.05,66.75.07,67.07v-26c20.79.25,38.14-19,37-41Z"/><path class="cls-2" d="M1000.07,41.07c-20.84,2.53-40-14.42-41.79-37-.11-1.33-.14-2.66-.21-4h19c2.39,16,9.33,22.68,23,22Z"/><path class="cls-2" d="M977.77,999.87l-19.47,0c2.66-22.47,16.7-35.84,39.33-37.46.82-.06,1.63-.25,2.44-.38v20C987.94,981.22,979.47,988,977.77,999.87Z"/><path class="cls-2" d="M37.07.07c1.14,22-16.21,41.25-37,41v-19c11.52-1.58,18-9.49,18-22Z"/><path class="cls-2" d="M37,1000H18.18C15.58,988.87,9.9,983.24.07,982.07v-19C19,962.42,37.27,980.73,37,1000Z"/><path class="cls-1" d="M1000.07,22.07c-13.67.68-20.61-6-23-22,6.83,0,13.67.12,20.5-.06,2.16-.06,2.63.41,2.57,2.57C1000,9.07,1000.07,15.57,1000.07,22.07Z"/><path class="cls-1" d="M977.77,999.87c1.7-11.89,10.17-18.65,22.3-17.8v18Z"/><path class="cls-1" d="M18.07.07c0,12.51-6.48,20.42-18,22,0-6.5.12-13-.06-19.49C-.06.42.41-.08,2.57,0,7.73.21,12.9.07,18.07.07Z"/><path class="cls-1" d="M.07,982.07c9.83,1.17,15.51,6.8,18.11,17.94l-18.11.06Z"/><path class="cls-2" d="M611.1,500.83h31c7.2,0,7.41,0,6.79,7.44-4.72,56.83-31.88,99.5-82.73,125.25-88.36,44.74-195.48-9.61-212.79-107.11a155.07,155.07,0,0,1-2.31-21.85c-.1-2.84.9-3.77,3.7-3.76,21.17.07,42.33.11,63.5,0,3.75,0,3.74,1.83,3.75,4.65a75.32,75.32,0,0,0,75.1,75.6c41.61.23,76-34,75.72-75.57,0-4,1.23-4.74,4.77-4.68C588.76,500.94,599.93,500.83,611.1,500.83Z"/><path class="cls-2" d="M607.25,479.12c-11.66,0-23.33-.1-35,.07-3.09,0-4.63-.94-6-3.81-13.79-29-36.7-45.13-69-45.11s-55.13,16.2-68.93,45.18c-1.39,2.92-2.93,3.75-6,3.73q-32.25-.18-64.49,0c-3.43,0-4.92-.22-4.18-4.58,11-65.21,64.57-115.64,130.61-122.7,77.87-8.33,149.35,45.87,162,122.66.7,4.25-.58,4.68-4.12,4.63C630.59,479,618.92,479.12,607.25,479.12Z"/><path class="cls-2" d="M665.78,244.42c.27-25.47,7.93-45.35,22.78-62.56,2.43-2.82,4-3.48,7-.37,7.9,8.34,16.12,16.38,24.34,24.41,2.1,2,2.28,3.17.11,5.53-17.55,19-17.18,46.44.66,64.35,17.59,17.66,45.24,17.81,64.39.22,1.86-1.71,2.87-2.09,4.77-.16,9.35,9.5,18.73,19,28.29,28.25,3.22,3.12.21,4.25-1.38,5.71-31.38,28.76-80.78,30.8-115.07,4.41C678,296,666.28,271.55,665.78,244.42Z"/><path class="cls-2" d="M242.09,334.29c-22.91-.11-43-7.76-60.3-22.75-3-2.57-3.18-4.17-.23-7,8.2-7.82,16.12-15.92,24.06-24,2-2,3.13-2.93,5.87-.37,18.77,17.56,46.62,17.1,64.33-.77,17.52-17.66,17.82-45.39.43-64-2.51-2.68-1.74-3.81.34-5.86,8.92-8.75,17.85-17.49,26.46-26.54,2.95-3.1,4.42-2.33,6.87.39C355.49,234,329.36,316.59,262.9,332A83.72,83.72,0,0,1,242.09,334.29Z"/><path class="cls-2" d="M758.3,665.86c22.92.16,42.93,7.89,60.24,22.92,2.81,2.44,3,3.93.22,6.62-8.31,8-16.34,16.17-24.42,24.35-1.84,1.87-3,2.76-5.5.39-19-17.65-46.45-17.36-64.35.42-17.74,17.61-18,45.36-.41,64.35,2.34,2.52,1.53,3.61-.37,5.49-8.9,8.77-17.86,17.48-26.45,26.55-3.1,3.28-4.59,2.55-7.22-.4-45.35-50.85-19-133.29,47.44-148.42A86.24,86.24,0,0,1,758.3,665.86Z"/><path class="cls-2" d="M334.28,758.47c-.17,22.73-7.85,42.61-22.69,59.82-2.42,2.8-4,3.51-7,.38-7.89-8.35-16.12-16.39-24.34-24.42-2.09-2-2.31-3.16-.12-5.52,17.54-19,17.17-46.52-.66-64.36-17.67-17.67-45.21-17.84-64.37-.2-2.26,2.09-3.32,1.62-5.14-.22-8.88-9-17.74-18.07-26.9-26.81-3-2.86-2.53-4.33.27-6.86,50.48-45.78,134-19.19,148.71,47.37A85.75,85.75,0,0,1,334.28,758.47Z"/><path class="cls-2" d="M848.76,760.1c-1.38,32-16.49,59.51-47.85,76.14-31.65,16.79-63.16,14.25-93.42-4.87-3-1.92-3.34-3.09-.62-5.72,9.46-9.15,18.73-18.5,27.93-27.92,2.14-2.2,3.93-2.65,6.94-1.64,17.88,6,34.12,2.67,47.47-10.6,13.51-13.42,16.87-29.79,10.81-47.87-.93-2.78-.66-4.52,1.42-6.55,8.7-8.5,17.36-17.05,25.8-25.8,2.74-2.84,4-2.12,5.89.75C843.36,721.46,848.43,738.43,848.76,760.1Z"/><path class="cls-2" d="M151.74,252.68c-2.46-61,46.66-105.82,99.92-99a95,95,0,0,1,40.87,15c2.71,1.79,3.84,2.84.86,5.71-9.61,9.24-19,18.73-28.3,28.26-2,2.07-3.73,2.38-6.53,1.44-18.08-6.06-34.43-2.7-47.87,10.81-13.29,13.36-16.55,29.59-10.6,47.47,1,3,.56,4.8-1.64,6.94-8.48,8.25-16.88,16.59-25.09,25.11-2.81,2.92-4.28,3-6.58-.57C157.18,279.1,152.08,263,151.74,252.68Z"/><path class="cls-2" d="M759.6,151.48c51.29,2.76,88.91,43,87.35,93.58-.54,17.39-6,33.29-15.7,47.79-1.84,2.76-3,3.13-5.43.58-9.28-9.56-18.76-18.94-28.27-28.27-2-2-2.45-3.68-1.51-6.51,9.63-29.12-7.75-56.85-38.06-61a42.26,42.26,0,0,0-20.6,2.56c-2.58.95-4.21.65-6.13-1.31q-12.93-13.22-26.15-26.16c-2.13-2.1-2.5-3.3.26-5.3C719.32,157.3,742,150.53,759.6,151.48Z"/><path class="cls-2" d="M241.57,848.73C189.29,846,151.78,806,153.2,755.17c.49-17.38,6-33.27,15.63-47.8,2.17-3.29,3.39-2.81,5.79-.36,9.19,9.42,18.53,18.7,27.91,27.93,2,1.95,2.59,3.58,1.61,6.49-6.12,18-2.82,34.42,10.63,47.9s29.86,16.73,47.9,10.65c2.89-1,4.54-.4,6.5,1.6,8.52,8.67,17.08,17.32,25.82,25.77,2.57,2.5,2.17,3.77-.57,5.6A92.16,92.16,0,0,1,241.57,848.73Z"/><path class="cls-2" d="M450.06,502.06a47.38,47.38,0,0,1,94.75.72c-.21,25.79-21.6,47.07-47.29,47A47.42,47.42,0,0,1,450.06,502.06Zm47.26-24a24.38,24.38,0,0,0-.16,48.76,24.38,24.38,0,1,0,.16-48.76Z"/><path class="cls-2" d="M242.1,217.05a28.8,28.8,0,1,1-29,28.64A28.86,28.86,0,0,1,242.1,217.05Zm-.09,14a14.77,14.77,0,1,0,14.66,14.66A14.76,14.76,0,0,0,242,231.07Z"/><path class="cls-2" d="M783.11,242a28.8,28.8,0,1,1-28.74-28.93A28.89,28.89,0,0,1,783.11,242Zm-43.58-.7a14.78,14.78,0,1,0,15.59-14.21A14.88,14.88,0,0,0,739.53,241.31Z"/><path class="cls-2" d="M758.16,783.11a28.8,28.8,0,1,1,28.91-28.76A28.84,28.84,0,0,1,758.16,783.11Zm-.1-14a14.76,14.76,0,1,0-14.59-14.72A14.74,14.74,0,0,0,758.06,769.08Z"/><path class="cls-2" d="M245.78,787.07a28.82,28.82,0,1,1,28.85-28.87A28.66,28.66,0,0,1,245.78,787.07ZM260.6,758.3a14.76,14.76,0,1,0-15,14.76A14.84,14.84,0,0,0,260.6,758.3Z"/><path class="cls-1" d="M497.32,478.08a24.38,24.38,0,1,1-24.27,24.54A24.54,24.54,0,0,1,497.32,478.08Z"/><path class="cls-1" d="M242,231.07a14.77,14.77,0,1,1-14.92,14.35A14.87,14.87,0,0,1,242,231.07Z"/><path class="cls-1" d="M739.53,241.31A14.78,14.78,0,1,1,754,256.66,14.89,14.89,0,0,1,739.53,241.31Z"/><path class="cls-1" d="M758.06,769.08a14.76,14.76,0,1,1,15-14.77A14.85,14.85,0,0,1,758.06,769.08Z"/><path class="cls-1" d="M260.6,758.3a14.76,14.76,0,1,1-14.52-14.81A14.8,14.8,0,0,1,260.6,758.3Z"/></g></g></svg>